<svg xmlns="http://www.w3.org/2000/svg" width="262.575" height="221.852" viewBox="0 0 262.575 221.852"><defs><style>.a{fill:#f5f5f5;}.a,.b{fill-rule:evenodd;}</style></defs><g transform="translate(-101 -37)"><path class="a" d="M440.851,389.151c-.513,7.525-10.724,11.437-16.917,13.042,1.241-7.382,2.845-15.034,1.847-22.521-.328-2.466-.759-4.919-1.222-7.363q-.257-1.356-.531-2.708c-.044-.219-.4-1.178-.289-1.4.2-.391,1.937-.33,2.378-.313a9.132,9.132,0,0,1,3.294.786,15.584,15.584,0,0,1,5.549,4.414c3.581,4.28,6.277,10.384,5.89,16.059M429.03,338c-5.927,3.51-13.068,5.394-19.828,6.312-10.3,1.4-20.815-.211-30.885-2.443-2.472-.548-4.94-1.138-7.375-1.831a34.809,34.809,0,0,0,5.819,19.873c3.242,4.92,7.472,9.032,11.17,13.59,3.442,4.243,6.219,9.029,6.357,14.628.057,2.337-.135,4.475-2.091,5.99s-4.622,2.086-7.028,2.433A61.735,61.735,0,0,1,366.845,396c-1.163-.186-2.323-.4-3.47-.661-1.3-.3-1.759-.653-2.847.325-2.348,2.11-3.425,5.275-3.957,8.3a44.311,44.311,0,0,0,.778,17.878c1.384,5.389,7.916,8.375,12.755,9.678,14.6,3.928,30.7-1.5,41.9-11.154.244-.211.486-.424.723-.644.8,1.656,1.664,3.284,2.613,4.857a23.546,23.546,0,0,0,2.188,3.169,4.618,4.618,0,0,0,1.065,1.057c.765.429,1.544.114,2.41-.037a102.959,102.959,0,0,0,18.848-4.868c9.24-3.495,17.528-9.252,21.907-18.346a45.163,45.163,0,0,0,3.924-14.675c.641-5.8.779-11.72-.852-17.369-2.988-10.352-10.613-18.744-18.964-25.217A82.874,82.874,0,0,0,429.03,338" transform="translate(-173.601 -204.918)"/><g transform="translate(101 37)"><path class="b" d="M258.874,38.333a14.181,14.181,0,0,1-4.243.791c-1.128.082-2.012.534-3.075.56a71.084,71.084,0,0,0-8.872.645c-2.956.444-5.679-.136-8.014,2.086-.831.79-1.872,1.7-1.373,2.975.229.584.552,1,.742,1.631a15.936,15.936,0,0,0,.794,2.054c.6,1.295,3.585,6.117,1.16,6.707-2.629.639-6.195-.108-8.727-.84-1.478-.427-2.932-.927-4.388-1.42a21.61,21.61,0,0,1-3.73-1.222c-.7-.406-.851-1.1-1.316-1.755a18.648,18.648,0,0,0-2.734-3.21,28.8,28.8,0,0,0-7.91-4.7,3.1,3.1,0,0,0-.706-.284c-.211-.02-.443.2-.579.171-.373-.073-.5-.307-.912-.539-.549-.312-2.787-1.349-3.178-.533.366-1.071.634-.762,1.625-.607.436.069.728-.131,1.121-.111.361.018.51.224.812.28a8.522,8.522,0,0,0,1.646.021q.233-.514.66.007l.478.155a9.5,9.5,0,0,0,1.778.174c.885.07,3.189,1.148,3.633.057.473-1.165-.964-1.456-1.2-2.269-.234-.8.861-1.266,1.3-1.748a13.1,13.1,0,0,1,1.394-1.512,5.059,5.059,0,0,0,1.05-.925c.235-.347.224-.909.529-1.2.363-.345.419-.106.749-.273.647-.327.361-.311.744-.758.327-.383.568-.371,1-.664.627-.429.847-1.268,1.457-1.729.446-.338,1.156-.337,1.547-.688.23-.207.159-.541.358-.737.382-.375.644-.223,1.121-.346.8-.208,1.065-.653,1.658-1.168a3.19,3.19,0,0,1,1.563-.663,14.671,14.671,0,0,0,2.359-1.374c.787-.386,1.6-.656,2.394-1.067.574-.3,1.128-.481,1.652-.783.177-.1.192-.476.421-.527.262-.058.472.378.751.4.585.048,1.251-.6,1.635-.976.167-.163.393-.6.608-.7.449-.191.717.187,1.118.038.562-.21.339-.823.683-1.161a1.842,1.842,0,0,1,1.476-.182c2.155.376-1.2,1.9-1.829,2.206-1.061.519-8.779,4.291-6.973,6.173.955,1,3.287.247,4.326-.015,1.821-.46,3.718-1.345,5.586-1.548a9.283,9.283,0,0,0,1.107.068c.424-.162.319-.487.663-.658a4.816,4.816,0,0,1,2.107-.186,7.3,7.3,0,0,0,1.283.258,13.8,13.8,0,0,0,1.366-.392,11.16,11.16,0,0,1,2.386-.052c1.138.033,3.413.205,1.76,1.717-1.338,1.224-3.653,1.753-5.341,2.287-2.5.789-4.95,1.507-7.415,2.407-1.68.612-5.263,1.688-3.263,3.984l.591-.559c.233.236.474.695.848.708.311.011.2-.323.49-.427a12.572,12.572,0,0,1,3.164-.364c2.44-.155,4.871-.478,7.314-.578a27.54,27.54,0,0,1,6.882.511c.58.124,5.99,1.545,3.9,2.376ZM238.923,61.939a11.05,11.05,0,0,1-.458,2.844,21.461,21.461,0,0,1-.38,3.44c-.659,2.313-1.128,4.679-1.836,6.978a57.848,57.848,0,0,1-5.342,11.328,27.875,27.875,0,0,1-4.109,5,32.905,32.905,0,0,1-4.47,4.516,42.907,42.907,0,0,1-11.635,6.419,37.789,37.789,0,0,1-13.707,1.757,52.6,52.6,0,0,1-6.27-.209c-2.155-.355-4.491-.79-6.609-1.313a98.653,98.653,0,0,1-11.433-4.045,73.75,73.75,0,0,1-11.927-6.045,27.943,27.943,0,0,1-3.064-1.661c-.809-.632-1.6-1.237-2.456-1.815-.976-.663-1.911-1.387-2.908-2.017-.6-.377-1.435-.745-1.748-1.427-.43-.938.088-2.115.357-3.024.35-1.184.721-2.353,1.141-3.513.711-1.965,2.52-5,1.525-7.072-2.1,1.3-3.023,3.854-3.919,6.026a24.349,24.349,0,0,0-1.98,8A40.948,40.948,0,0,0,150.37,103c.305.784.841,1.634.447,2.472a4.974,4.974,0,0,1-2.4,2c-2.728,1.2-5.466,1.554-8.315,2.219a22.551,22.551,0,0,1-2.353.794c-.491.046-.9-.115-1.46-.111s-1.007.32-1.513.354c-.441.03-.833-.228-1.254-.2-.942.055-1.116,1.669-1.582.248-.085.058-.553.589-.611.589-.133,0-.368-.395-.5-.465a2.413,2.413,0,0,0-.851-.181,5.354,5.354,0,0,0-1.871.053,12.537,12.537,0,0,1-3.191.132c-.217,0-.371.17-.64.16-.123-.005-.3-.223-.43-.256a11.662,11.662,0,0,0-2.3-.092,31.5,31.5,0,0,1-5.308-.547c-3.611-.817-7.292-.981-10.918-1.729-1.847-.381-3.651-.589-5.47-1.091a15.306,15.306,0,0,1-1.86-.5c-.541-.23-.328-.537-1.167.079-.377-.924-.422-.83-1.332-1.135a5.785,5.785,0,0,1-1.423-.645c-.026-.023-.586-1.43-.635-1.6A7.121,7.121,0,0,1,93.5,100.9a54.707,54.707,0,0,0,.556-5.719,2.762,2.762,0,0,1,.425-1.511c.081-.2.321-.182.341-.484.027-.4-.384-.682-.34-1.151.059-.631.693-1.271.915-1.859a15.019,15.019,0,0,0,.424-2.191c.214-.976.626-1.891.834-2.871a6.145,6.145,0,0,1,.635-2.2c.442-.711.312-1.291.664-2,.323-.649.732-.882.953-1.666a17.349,17.349,0,0,1,2.5-5.38c1.014,4.03,2.093,8.194,4.917,11.379a9.022,9.022,0,0,0,4.419,3.035c1.983.452,3.569-.718,4.86-2.1a16.822,16.822,0,0,0,4.537-11.464c.046-1.113.04-2.227.025-3.341-.007-.5-.261-1.767.079-2.184.372-.457,1.435-.171,1.987-.472.68-.371,1.427-1.363,1.123-2.181,1.812.82,3.544,1.9,5.559,2.129a14.149,14.149,0,0,0,2.361-.085c-.021,0,.553.118.587.126a.352.352,0,0,1,.459-.119.382.382,0,0,1,.32.236c2.872.287,5.764-1.132,8.222-2.635,1.436-.878,3.014-2.179,3.417-3.889.144-.61.019-1.185.65-1.5.512-.253,1.5.112,2.043.152,1.9.139,3.777-.041,5.634.526,1.133.346,3.112,2.77,3.9,1.065.343.322.157.895.522,1.208a15.929,15.929,0,0,0,1.828.7,13.539,13.539,0,0,1,1.678,1.277c.733.534,1.5.575,2.21,1.2a68.563,68.563,0,0,0,8.08,5.542c3.256,2.135,6.137,4.652,9.63,6.393a50.069,50.069,0,0,0,10.934,4.194,34.04,34.04,0,0,0,5.406.9,10.676,10.676,0,0,1,2.5.287,3.44,3.44,0,0,0,1.158.249c.288.008.7-.158,1.058-.151a4.491,4.491,0,0,1,1.756.224,6.442,6.442,0,0,0,2.206.459,7.707,7.707,0,0,0,2.43-.577,6.637,6.637,0,0,0,1.992-.483,17.864,17.864,0,0,0,6.6-7.3,31.6,31.6,0,0,0,3.288-11.391,13.939,13.939,0,0,0-1.165-6.33c-.236-.567-1.651-2.98-1.215-3.418.494-.5,2.112.644,2.568.892,1.447.787,4.061,1.038,5.075,2.362.258-.5,1.7.239,2.156.446.381.171.489.48.969.517.452.035.918-.326,1.334-.441-.3.847.717.886,1.416.931a11.134,11.134,0,0,0,1.493-.079c.858-.061.872-.254,1.656-.694a2.313,2.313,0,0,0,.1.944c.5-.729,1.465-.223,2.146-.543-.492-.747,1.609-.951,2.1-.794,1.232.4.4,1.967.505,2.875Zm-96.437,51.318c.812-.242,1.63-.464,2.445-.7-.617.567-1.259,1.589-2.14,1.749-1.064.192-1.482-.7-.3-1.053Zm-40.12.406c1.368.164,2.858.038,4.057.846-.584.672-.964,1.376-1.939.991a8.049,8.049,0,0,1-2.118-1.837Zm45.708,36.814c-.9-.806-.78-1.166-.358-2.209.181-.449.469-1.843,1.15-1.435a5.994,5.994,0,0,1,.578,1.972c.1.688-.329,2.605-1.371,1.671Zm5.067-4.679c-.317-1.166-.306-2.436-.618-3.631a23.7,23.7,0,0,1-.85-3.832c4.747.839,7.442,5.549,9.5,9.481a24.083,24.083,0,0,1,2.576,6.735c.4,2.276-.3,4-1.106,6.031-.413,1.036-1.1,1.395-1.893,2.079-.706.606-.971,1.629-1.707,2.174-.544.4-1.251.611-1.819,1.018s-1.124.8-1.7,1.174c-.663.428-2.649,1.99-3.544,1.656-.67-.249-.372-1.069-.2-1.583a26.3,26.3,0,0,0,.824-3.256,63.693,63.693,0,0,0,1.055-9.073,28.612,28.612,0,0,0-.51-8.972Zm-3.97,13.592c.071.148.368,1.413-.294,1.153-.46-.181.226-.921.294-1.153Zm2.8-50.229c.56-.231.784.453,1.277.474.654.027.791-.7,1.477-.721,1.677-.053,4.108,1.568,5.472,2.414a2.784,2.784,0,0,0-.611,2.747c.293.916,1.41,1.94,1.369,2.91s-1.251,1.6-1.629,2.465c-.347.8-.479,2.385.591,2.736,1.841.6,2.262-2.845,3.657-2.871.6-.011,1.371,1.11,1.8,1.459a14.768,14.768,0,0,0,3.161,1.872c.754.35,1.8,1.041,2.362.1a2.743,2.743,0,0,0-.353-2.6c-.5-.744-4.976-4.152-4.693-4.452.151-.16,1.265.281,1.423.415.357.3.488.794.846,1.116a5.209,5.209,0,0,0,1.926.913c1.409.473,2.3,2.139,3.666,2.915a10.671,10.671,0,0,1,1.935,1.971c.872.871,1.761,1.783,1.63,3.066-.091.889-.223,2.958-.726,3.708-.546.814-1.453.5-2.282.694a1.739,1.739,0,0,0-1.493,1.983c.193,1.081,1.057,1.158,1.96,1.185,2.546.077,1.609,1.694,2.5,3.469.482.964,1.287,1.343,1.841.214.446-.908-.351-2.34.133-3.115.589-.945,3.743-.688,4.4.046.5.557.763,1.322,1.26,1.9a11.772,11.772,0,0,1,1.518,3.207c.481,1.151.9,2.318,1.268,3.51.259.838.818,2.164-.52,1.448-.934-.5-1.632-1.626-2.816-1.662a1.645,1.645,0,0,0-1.5,2.239c.331,1.023,1.84,1.474,2.015,2.512.192,1.135-1.752,2.293-2.343,3.128-1.36,1.922-.222,4.085,2.006,2.454.79-.578,1.617-1.744,2.508-2.11,1.41-.578,1.4,1.564,2.076,2.352.364.424.495-.007.28.627-.079.234-.482.307-.527.6-.033.213.158.326.165.49a3.661,3.661,0,0,1-.1,1.248,16.521,16.521,0,0,0-.13,2.193c-.1,1.563-.117,3.056-.281,4.619-.091.87-.282,2.641.745,3.065-.365.573-.852,2.166-1.57,2.046.058.377.026.859.392,1.105l.263-.69c.2.525.024.586.012.944.015-.443-.4.618-.177.487-.193.161-.447.253-.737.462a5.063,5.063,0,0,0-.932,1.087c-.569.712-.536,1.431-1.033,2.174-.706,1.053-1.612,2.093-2.356,3.145-.605.856-1.759,1.351-2.245,2.271-.309.586-.432,1.267-.958,1.679-.754.59-1.762,1.146-2.581,1.755-.515.383-.907.914-1.421,1.286-.26.188-1.044.379-1.045.763-.986-.276-1.684-1.284-2.46-1.9-.518-.41-1.752-.942-1.678-1.763.061-.672,1.016-1.505,1.236-2.21.187-.6.447-1.71-.07-2.22-1.083-1.069-2.31,1.226-2.892,1.837-1.2,1.26-1.709-.011-2.694-.926-1.575-1.462-2.565.055-2.01,1.875.281.921,1.35,1.743,1.419,2.684.076,1.034-1.044,1.554-1.487,2.38-.419.779-.612,2.148.175,2.793.868.711,1.623-.13,2.19-.787.441-.51.931-1.632,1.647-1.7.9-.079,2.368,1.55,3.05,2.052-1.037.3-1.661,1.168-2.537,1.724-1.131.718-2.71.887-3.976,1.38a36.269,36.269,0,0,0-3.4,1.418,35.513,35.513,0,0,1-4.422,1.351c-1.274.444-2.482,1.067-3.783,1.434-1.466.413-2.988.662-4.467,1.036a17.6,17.6,0,0,1-4.05.629c-1.318,0-1.291-.814-1.712-1.9-.5-1.292-1.33-2.425-1.859-3.686-.5-1.2.257-1.654.986-2.571.687-.864.5-1,1.39-.393,1.166.8,1.936.258,2.843-.66.807-.816,1.1-1.5,2.264-.926a24.619,24.619,0,0,0,3.517,1.866c.984.292,1.716.08,1.881-1a2.868,2.868,0,0,0-1.32-2.678c-.636-.525-2.025-1.148-2.257-2-.245-.9,1.045-2.207,1.183-3.211.174-1.267-.372-2.2-1.574-1.322-.872.636-1.452,2.016-2.663,2.1A19.811,19.811,0,0,1,149,175.376c.524-1.082.974-2.31,2.382-2.431a11.606,11.606,0,0,0,1.189-.07c.575-.1,1.355-.186,1.97-.341,1.446-.365,2.723-1.482,4.055-2.122.305.822.846,3.162,2.089,1.8.92-1.011-.1-2.75.748-3.874,1.748-2.32,5.554-.616,7.85-1.812,1-.521,1.813-2.181.4-2.682-.824-.292-3.2.787-3.7-.009-.353-.568,1.127-2.786,1.306-3.4a20.426,20.426,0,0,0,.466-5.821c1.117.457,2.531,1.527,3.735,1.674,1.238.15,1.456-1.3,1.131-2.258-.447-1.315-1.937-2.393-2.958-3.241-.45-.373-1.629-.975-1.876-1.542-.255-.586.11-.87.4-1.38.447-.8,1.53-2.855.351-3.6-1.084-.687-1.692,1.238-2.382,1.649-1.172.7-1.573-.9-2.039-1.716a34.75,34.75,0,0,0-3.069-4.128,6.07,6.07,0,0,1-1.687-3.573c-.106-1.169-.345-2.073,1.033-2.339,2.443-.471,6.019.689,8-1.3,1.041-1.042.3-2.12-1.017-2.066a41.248,41.248,0,0,1-5.1.016c-.923-.074-2.854.15-3.32-.8-.6-1.226.417-3.195-.688-4.269-1.411-1.372-1.756,1.728-1.8,2.584-.034.624.125,1.573-.262,2.113-.362.5-1.024.5-1.559.678-1.348.458-2.045,2.115-.256,2.466.6.118,1.441-.054,1.941.393.524.467.324,1.3.373,1.926-1.253-1.453-3.858-.809-5.555-1.348-.893-.284-1.045-.663-1.421-1.528-.455-1.048-1.492-2.372-1.532-3.531-.034-.983.785-1.724,1.167-2.572a6.77,6.77,0,0,0,.577-2.728c-.117-1.969-3.668.041-4.4.794-1.328,1.367-2.964,3.136-2.245,5.072.642,1.728.983,2.708-1.245,2.572-.815-.05-2.528.112-3.16-.233-.47-.255-.293-.714-.309-1.378a3.663,3.663,0,0,0-.339-1.95c-1.3-1.768-1.6,2.632-2.332,3.108-1.14.745-3.553-.036-3.366,2.176.163,1.935,2.778,1.145,3.5,2.81a23.939,23.939,0,0,0,.713,2.51c.625,1.1,1.395,1.044,1.81-.106.291-.808-.1-1.638.127-2.4.323-1.1,1.863-1,2.811-1.125a17.79,17.79,0,0,0,3.25-.8c1.351-.437,1.278.281,1.5,1.32.255,1.206.645,2.369.885,3.592a35.872,35.872,0,0,1,.911,3.51c.073.873-.222.793-.945,1.3-.79.55-1.659,1.981-2.576,2.216-1.379.354-2.768-2.8-4.022-1.185a3.179,3.179,0,0,0,.053,2.882c.506.945,1.436,1.186.657,2.268-.586.813-1.322,1.443-1.377,2.538-.051,1.016.639,1.977,1.72,1.679.873-.241,1.389-1.135,2.05-1.677,1.141-.937,2.077-.069,3.245.461.919.418,2.608.69,3.07,1.672.585,1.246-.165,1.728-1.253,1.373.424,1.393-.134,2.2-.287,3.642-.124,1.165-.392,2.232-.562,3.358-.227,1.5-.251,1.341-1.8,1.392-1.315.043-2.594.008-3.907-.049-1.157-.051-1.945.054-2-1.343-.023-.616.365-2.706-.849-2.455-1.07.221-.762,2.13-1.119,2.848-.517,1.039-1.393.721-2.367.977a1.792,1.792,0,0,0-1.536,2.123c.273,1.207,1.379,1.123,2.341,1.4,1.481.43,1.156,2.608,2.02,3.791.353.483.724.97,1.316.574,1.086-.727.061-2.5.348-3.393.3-.937,1.319-.745,2.281-.867,1.419-.179,2.905-.864,4.319-.856-.271.816-1.031,1.291-1.3,2.15-.147.461-.01,1.321-.214,1.7-.219.409-.908.532-1.194,1.1-.373.745-.489,1.544-.926,2.274-1.033,1.726-1.923,3.491-3.021,5.2a34.779,34.779,0,0,1-3.782,4.974c-1.384,1.484-1.8.765-2.986-.448-.484-.494-1.512-1.065-1.646-1.8s.468-1.32.8-1.912c.436-.785,1.225-2.135,1.032-3.076-.36-1.768-1.94-.14-2.54.522-1.046,1.156-1.631,2.371-3.213,1.458-1.012-.585-2.289-2.185-3.617-1.593-1.209.539-.871,2.1-.127,2.885.417.442,1.011.7,1.453,1.11.952.893.413,1.135-.022,2.134a3.373,3.373,0,0,0,.248,3.109c1.29,1.341,2.287-1.364,3.484-1.419a6.69,6.69,0,0,1,3.094,2.079c.295.978-2.25,2.145-2.926,2.6a27.549,27.549,0,0,1-5.055,2.863c-2.088.835-.532-1.8-1.673-2.671-1.484-1.138-1.6,1.979-1.751,2.754-.4,2.06-2.58,2.113-4.335,2.624-1.117.325-2.235.671-3.364.953-.958.24-2.031.234-2.959.531-.814.261-1.372.79-2.282.8-.3,0-.554-.1-.839-.105-.576-.014-1.1.315-1.654.281-.916-.057-.517-.346-.836-.985-.3-.6-1.06-.82-1.653-1.007-1.7-.537-3.111-.066-3.358-2.225-.076-.663.024-3.385-1.237-3.067-1.473.371-.177,3.606-1.091,4.417-.445.395-1.117.2-1.653.314-.88.191-1.266.856-2.23.811a5.755,5.755,0,0,1-2.279-.757,13.3,13.3,0,0,1-3.2-1.7,10.279,10.279,0,0,1-2.251-4.371,24.64,24.64,0,0,1-1.2-6.781,14.012,14.012,0,0,0-.533-2.135c-.154-.794.3-.954.405-1.706.1-.732.052-1.513.206-2.3.221-1.127.3-2.28.513-3.411.355-1.87.893-3.726,1.335-5.579.137-.576.386-2.421,1.1-2.6.524-.131,1.734.65,2.22.879a21.255,21.255,0,0,0,2.814,1.392c.53.162,1.2.146,1.547.638.55.779.106,2.305.333,3.226.279,1.127,1.2,1.607,1.947.474a3.959,3.959,0,0,0,.344-1.99c.076-.962.093-1.195,1.134-1.13s2.083.464,3.165.513c.975.043,1.954.017,2.928-.037a21.831,21.831,0,0,0,6.746-1.356c1.5-.57,3.244-1.818,4.9-1.774,2.337.062,1.7,2.226,2.025,3.845.195.985,1.842,4.01,2.475,1.555.313-1.214-.73-2.984-.112-4.081.73-1.3,3.412-.221,4.632-.521.988-.243,2.638-1.643,1.941-2.852-.33-.572-.972-.464-1.544-.507-1.084-.081-2.161-.229-3.237-.388-.612-.09-1.547-.143-1.791-.845-.208-.6.765-2.143.977-2.713a14.589,14.589,0,0,0,.953-5.484,17.752,17.752,0,0,0-.088-2.825c-.055-.336-.56-1.435-.323-1.756.318-.433.969.117,1.23.441.519.646.338.594.043,1.263-.434.984-1.278,3.048.153,3.806,1.5.792,2.037-1.885,3.455-1.592.661.137,1.314,1.006,1.846,1.412a8.987,8.987,0,0,0,2.03,1.272c1.2.479,2.554.12,2.068-1.392a8.68,8.68,0,0,0-2.462-3.036c-1.381-1.347-1.318-1.913-.364-3.5.4-.664,1.932-3.483.155-3.712-.94-.122-1.957,1.4-2.454,1.987-.853,1-1.341,1.431-2.61.627-1.24-.786-1.815-1.443-3.315-1.515-1.725-.083-2.5-2.676-3.416-4.007-2.485-3.617-6.289-5.406-9.5-8.177a25.643,25.643,0,0,1-3.808-4.78,22.305,22.305,0,0,1-1.758-2.312c-.29-.543-1.076-1.85-.872-2.491.255-.8,1.63-1.289,2.2-1.852.48-.472.736-1.061,1.491-.881.672.161,1.277,1.07,1.827,1.47a12.037,12.037,0,0,0,1.745,1.05c1.081.531,2.387.814,2.451-.8.055-1.4-1.218-2.891-2.137-3.832-.669-.685-1.683-1.281-1.55-2.369a6.771,6.771,0,0,1,.791-1.953c.922-1.558,3.738-.607,5.268-.508,1.843.121,3.876-.189,5.341,1.115.478.425,1.586,1.261,1.82,1.853.273.689-.173,1-.421,1.666-.32.862-.541,2.564.381,3.159,1.539.992,2.342-1.95,3.942-1.307,1.517.61,2.578,2.365,4.31,2.643,2.267.363.976-2.446.192-3.273-1.017-1.072-2.99-2.18-2.344-3.765a5,5,0,0,1,.985-1.679c.742-.551,1.939-.248,2.789-.239a33.082,33.082,0,0,0,6.273-.529c.634-.113.778-.2,1.225.269.619.653.944,1.5,1.663,2.147-1.039,1.12-2.58,2.443-1.857,4.167.622,1.484,1.985.756,2.907-.037.433-.372.88-1.16,1.454-1.309.745-.194,1.582.483,2.192.826.915.516,2.873,2.046,3.913,1.143,1.375-1.195-.252-2.992-1.2-3.729a12.2,12.2,0,0,1-1.818-1.315c-.642-.733-.266-.84.123-1.5.712-1.209.451-2.765,1.589-3.709a13.327,13.327,0,0,1,2.254-1.236c.709-.378,1.471-1.128,2.166-1.416Zm11.6,4.7-.83-.509c.633-.308,1.05-.272.83.509Zm15.272,14.684c.111-.564.546-1.573,1.145-1.045.386.339-.035,1.612.882,1.26.047.811-.557.742.334,1.464-1.124-.13-2.676-.079-2.361-1.679ZM135.2,196.925c.283-.76.281-1.938,1.152-1.243.046-.92-.172-3.837,1.5-3.719.681.048.674.649.854,1.169a18.986,18.986,0,0,0,1.29,2.58,11.422,11.422,0,0,0-4.793,1.213Zm.542,10.485c.947.716,1.422-.129,2.316-.438a24.639,24.639,0,0,1,2.6-.316,18.011,18.011,0,0,1,3.577-.222c.273,0,.844.041,1.119.073.5.057.457.162.978.3a4.911,4.911,0,0,1,.608-.1.64.64,0,0,1,.594.312,9.286,9.286,0,0,0,1.086.161,4.734,4.734,0,0,1,2.559,1.755c1.418,1.734,1.46,4.34,1.428,6.486a14.515,14.515,0,0,0,.011,1.829c.062.559.457,1.4.3,1.96-.245.841-1,.652-1.885.689-.519.022-1.038.357-1.451.387a2.834,2.834,0,0,1-.965-.209,7.332,7.332,0,0,0-3.342.388c-1.068.295-2,.586-3.089.795-.705.136-1.339.213-2.051.3-.583.073-.835.38-1.344.507-.491.122-.969-.061-1.464.035a9.871,9.871,0,0,0-1.76.872c-.848.34-2.2-.168-2.578.88-.147-1.011-1.117-.736-1.838-.826a22.478,22.478,0,0,1-3.5-1.021c-.938-.279-4.181-2.849-4.8-1.806,0-.105.114-.7.016-.772-.346-.243-.343-.109-.716-.262a3.288,3.288,0,0,1-1.217-.836c-.824-.794-1.933-1.209-2.8-1.929-2.18-1.81-2.926-5.537-3.458-8.132-.7,1.233-.44-.349-.32-.878.285-1.247-.081-1.863-.164-3.068-.076-1.109.429-1.328,1.43-1.444a27.208,27.208,0,0,0,3.628-.65,13.434,13.434,0,0,0,3.324-1.21c.953-.535,1.952-.745,2.926-1.214,1.074-.517,2.128-1.06,3.211-1.563.488-.227,2.639-1.85,3.013-1.751.766.2.043,1.545-.191,1.9a7.416,7.416,0,0,1-2.475,1.894c-.8.513-3.235,2.944-.765,2.7,1.637-.162,2.745-1.877,3.793.078.37.69.913,1.244.488,1.958-.593,1-2.305,1.47-3.2,2.139-.765.571-2.329,3.262-.753,3.551a1.831,1.831,0,0,0,1.489-.377c.227-.237.211-.727.441-.889.326-.231.959.055,1.331-.072.53-.18.654-.47.849-.979.566.258.574.6,1.22.272.214-.11.293-.516.541-.624.333-.145.433.331.615.261.5-.19.494-.4.651-.894ZM101.771,199.5a4.007,4.007,0,0,1-2.8-.457,10.278,10.278,0,0,0,2.838.078c.392-.081,1.02-.451,1.421-.322,1.427.458-1.084.673-1.464.7ZM99.136,116c-.014-.334-.3-4.825,1.237-3.061.42.483-.033,1.129-.093,1.663a4.063,4.063,0,0,0,.689,2.558c.442.706,1.268,1.325,1.144,2.246-.108.808-.924,1.5-1.326,2.169A11.9,11.9,0,0,1,99.136,116ZM95.763,68.868a58.149,58.149,0,0,0-10.52,2.058A68.109,68.109,0,0,0,75.578,75c-.652-2.791-1.334-5.574-1.978-8.367q-.465-2.016-.9-4.041c-.207-.959-.957-2.747-.644-3.69.166-.5.386-.5.743-.811a5.762,5.762,0,0,1,.825-.748,8.105,8.105,0,0,1,2.531-.416c.514.031.783.235,1.312.087a9.578,9.578,0,0,0,1.251-.662,18.939,18.939,0,0,1,3.568-.9c1.107-.246,2.25-.3,3.359-.545.972-.214,1.434-.929,2.263-.9a25.993,25.993,0,0,0,6.683-.7,36.168,36.168,0,0,1,7.478-.528c.982-.025,1.671-.245,1.677.847a21.272,21.272,0,0,1-.8,4.133,67.408,67.408,0,0,0-1.341,8.624c-.114,1.466-.715,1.364-1.907,1.814a14.814,14.814,0,0,1-3.94.677ZM77.072,98.487c.876.129.775-2.267.84-2.754,2.089,3.939,4.441,7.729,6.281,11.8.43.951.821,1.925,1.275,2.864.311.644,1.007,1.507.99,2.256-.018.781-.649,1.074-1.314,1.363-.719.313-1,.469-1.506.107a8.847,8.847,0,0,1-1.5-2.438c-.578-.993-1.132-2-1.7-3-1.026-1.813-2.236-3.548-3.079-5.451-.789-1.783-1.984-3.317-2.835-5.068-.843-1.734-2-3.379-2.965-5.076.973-.4,2.186-1.416,3.291-1.36,1.142.058,1.114,1.16,1.164,2.078.052.975-.274,4.485,1.059,4.682Zm2.8,17.8a7.566,7.566,0,0,1-2.416,1.324c-1,.475-2.019.9-3.012,1.381-3.258,1.59-6.5,3.045-9.822,4.505q-2.574,1.132-5.085,2.4c-.877.441-2.81,1.987-3.819,2.027-1.157.045-1.184-2.291-1.439-3.167-.214-.733-.612-1.3-.879-2-.109-.284-.024-.5-.19-.78-.189-.32-.719-.579-.991-.855a36.553,36.553,0,0,1-3.091-3.992c-.894-1.212-2.42-2.729-2.849-4.214-.844-2.919,4.058-4.535,5.933-5.708,3.284-2.053,6.583-4.163,9.713-6.444,1.426-1.039,2.822-2.12,4.254-3.15.669-.48,2.522-2.35,3.38-1.684.32.248.326.934.459,1.294A11.633,11.633,0,0,0,71.206,99.4a10.8,10.8,0,0,1,1.213,1.967,6.287,6.287,0,0,0,.825,2.047c.987,1.355,1.453,2.919,2.371,4.3a19.339,19.339,0,0,1,2.314,3.8,16.888,16.888,0,0,0,1.319,2.395c.218.371.446.735.641,1.119.35.686.473.677-.011,1.253Zm-28.006,11.4c-.626.448-1.548-.305-2.156-.315-.264,0-.527.2-.7.2a5.179,5.179,0,0,1-1.453-.538c-2.256-.767-4.946-.8-6.873-2.355-3.828-3.1-2-9.309-1.306-13.333.142-.821.4-1.957-.265-2.629-.727-.737-1.82-.3-2.485.3a16.7,16.7,0,0,0-1.714,2.181c-.9,1.137-1.89,2.211-2.886,3.266-3.54,3.748-7.288,8.038-11.667,10.789-1.821,1.144-3.47,2.7-5.466,3.567-2.4,1.049.064-3,.5-3.658,2.826-4.306,6.94-7.715,10.4-11.5.652-.713,1.578-1.675,1.59-2.7.018-1.543-1.346-1.4-2.423-.976-1.008.4-1.513,1.4-2.324,2.08a26.585,26.585,0,0,1-3.314,2.222,79.752,79.752,0,0,1-7.563,3.925c-1.2.565-2.406,1.119-3.611,1.672-.331.152-2.309,1.407-2.214.331a10.178,10.178,0,0,1,1.431-1.734c.777-.284,1.162.573,1.853-.55a5.941,5.941,0,0,1,1.253-1.818,2.4,2.4,0,0,0,.295-.532c-.012.064.515-.449.414-.36a4.175,4.175,0,0,0,.452-.493c.542-.708,1.584-.721,2.056-1.531.18-.308.078-.7.295-1.009.3-.429.971-.612,1.328-.989.305-.324.557-.589.747-.787.131-.137.36-.232.514-.389.384-.389.354-.734.892-1.061.483-.293.705-.019.873-.746.588.377.514-.175.753-.57a4.621,4.621,0,0,1,1.132-1.115,22.274,22.274,0,0,0,2.624-3.067,20.723,20.723,0,0,0,4.195-8.773,21.2,21.2,0,0,0,.277-2.325c.03-.41-.1-1.408.15-1.81.394-.623,1.142-.376,1.711-.648.193-.093.384-.366.566-.428.254-.087.564,0,.828-.086.1-.032.126-.333.3-.372a4.079,4.079,0,0,1,.99.049,6.421,6.421,0,0,0,2.115-.346c.626-.208,1.151-.685,1.775-.857a3.97,3.97,0,0,0,.971.043l.157-.808a5.318,5.318,0,0,0,2.271.606c.706-.107.557-.743,1.156.093l1.016-.887c.257,1.077,2.024.554,2.826.614a9.919,9.919,0,0,1,3.047.265,13.82,13.82,0,0,0,3.7,1.114,10.776,10.776,0,0,1,2.256.807c1.24.367,1.338.772.95,2.038a3.706,3.706,0,0,0-.127,2.873c.815,1.869,3.029,2.639,4.457,3.93-3.344,2.347-6.647,4.657-9.88,7.158a11.253,11.253,0,0,0-3.567,3.673,27.771,27.771,0,0,0-1.543,4.761c-.982,3.571,1.784,5.974,4.626,7.545.588.325,4.639,5.409,3.816,6ZM46.355,132c-.2-.687-.174-.87.489-1.117.251-.093,1.213-.215,1.368.129.352.781-1.5.772-1.857.987ZM74.538,82.236c.237,1.524.471,3.048.683,4.576.117.844.382,1.59-.246,2.227a5.7,5.7,0,0,1-1.68.689c-.658.278-1.3.6-1.931.927-1.128.591-2.306.946-3.419,1.479a7.635,7.635,0,0,0-1.19,1c-.574.43-1.271.64-1.863,1.049-1.057.732-2.027,1.6-3.084,2.335-1.2.835-1.447.567-2.119-.667a10.317,10.317,0,0,0-2.2-2.481c-.338-.338-1.548-2.262-.52-2.428a4.008,4.008,0,0,1,1.379.48c.313.192.814,1.285,1.068,1.3.459.034,1.046-1.273,1.332-1.616a64.257,64.257,0,0,1,6.105-6.459,27.71,27.71,0,0,1,3.583-2.78c.908-.587,1.7-1.409,2.594-1.966a1.7,1.7,0,0,1,.644-.351q.7-.318.526.549a8.789,8.789,0,0,1,.336,2.133Zm-40.98-2a16.252,16.252,0,0,0,1.428-1.352c.224-.292.372-.814.628-1,.446-.329,1.085-.177,1.6-.618.5-.426.942-.936,1.431-1.378,1.061-.958,2.157-1.838,3.2-2.813a20.747,20.747,0,0,1,1.738-1.639,4.269,4.269,0,0,1,.444-.316c.317-.16.475,0,.937-.146.306-.1.524-.485.77-.668.583-.435,1.343-.608,1.9-1.027s.831-1.07,1.6-1.42c.934-.423,1.635-.089,2.31-.9.275-.329.351-.745.783-.953.521-.251.978.015,1.476-.269.335-.192.565-.6.911-.805a14.744,14.744,0,0,0,1.886-.879c.489-.392.218-.351.8-.517.255-.073.537-.1.809-.2.871-.3,2.294-.661,2.809-1.487.262.382.352.46.777.341a4.758,4.758,0,0,0,.614-.6.26.26,0,0,0,.44.031c.919-.316,1.763-.859,2.668-1.16l.385.208q.268.015.217-.262a5.379,5.379,0,0,0,1.095-.365c.629-.274,1.325-.926,2.066-.693,1.239.389,1.3,2.916,1.511,3.917q.79,3.7,1.586,7.4c.215,1,.4,2.015.687,3a5.207,5.207,0,0,1,.479,2.281c-.2.84-1.024,1.114-1.71,1.5-.945.536-1.859,1.13-2.753,1.747-3.8,2.619-6.628,6.221-9.32,9.917A7.413,7.413,0,0,0,57.1,87.053c-.583-.229-1.108-.044-1.689-.323a12.307,12.307,0,0,1-1.149-.839,25.664,25.664,0,0,0-8.047-3.4c-5.685-1.247-11.252.684-16.764,1.6,1.119-1.538,2.791-2.508,4.109-3.848ZM71.615,38.5a21.222,21.222,0,0,1,4.943-8.62,13.12,13.12,0,0,1,4.106-2.914c1.347-.58,2.95-1.136,2.929.728-.046,4.047-.98,8.048-1.095,12.1-.111,3.972.554,7.16,2.958,10.361-1.523.354-3.045.712-4.562,1.089-1.152.286-2.347.606-3.437.8a20.278,20.278,0,0,0-3.134.684c-.718.245-1.843,1-2.621.833-1.292-.271-.986-4.905-1.052-6.019a24.819,24.819,0,0,1,.965-9.046Zm23.611,6.106c1.765-2.142,3.6-4.642,6.568-5.04,2.871-.385,3.929,3.059,3.747,5.381-.062.786-.179,2.826-.75,3.462-.631.7-1.752.173-2.554.065-3.462-.469-7.013.314-10.485.314,1.158-1.394,2.322-2.783,3.474-4.182Zm14.208,8.544c1.2.173,2.166.356,1.585,1.727-1.164,2.746-2.059,5.367-1.038,8.36.779,2.286,3.246,5.061,5.712,5.519.864.161,2.163-.127,2.694.751.473.782-.04,3.126-.095,3.994a15.373,15.373,0,0,1-3.126,8.982c-1.862,2.261-4.134,4.03-6.843,1.9-2.283-1.8-3.631-5.016-4.306-7.765a22.641,22.641,0,0,1-.473-4.432c-.061-1.327-.314-2.168,1.186-2.443.4-.073,1.407-.05,1.408-.664,0-.825-1.087-.516-1.5-.557-1.607-.16-.854-2.029-.7-3.237.255-2.058.668-4.093,1.047-6.13.323-1.735.34-4.009,1.041-5.632.409-.947,2.612-.484,3.416-.368Zm2.958,6.094c.183-1.119.28-2.516,1.39-3.135,1.22-.679,1.83.427,2.432,1.332,1.6,2.4,3.363,4.644,3.624,7.622.031.355.184,1.068-.159,1.314-.153.11-.518-.18-.754-.162-1.264.091-2.179.43-3.419-.284a6.352,6.352,0,0,1-3.115-6.687Zm9.538,6.7a17.071,17.071,0,0,0-2.807-7.113c-.662-1.084-1.949-2.269-2.406-3.415a.827.827,0,0,1,1.079-1.11c.443.131,1.3,1.308,1.594,1.715a27.351,27.351,0,0,1,2,3.356c.644,1.221,2.475,5.7.544,6.567Zm-7.986-25.933c.141-2.45.155-5.264,1.742-7.3,1.23-1.577,3.482-2.263,5.308-2.873a19.829,19.829,0,0,1,7.99-.683c2.265.234,3.975,1.776,5.373,3.472a30.329,30.329,0,0,1,3.5,5.952c.245.5,2.32,3.724.916,3.649-.557-.03-1.041-1.117-1.467-1.438-.334-.252-.73-.22-1.029-.421-.321-.216-.252-.415-.5-.681-1.714-1.831-3.291-.777-5.141.188-.087-.639.065-1.825-.469-2.292-.7-.611-1.429.357-1.931.832-.456.432-1.019,1.22-1.593,1.454-.746.3-.493-.019-1.141-.274-1.305-.513-2.309,1.006-2.969,1.89-.246.33-.649,1.162-1.089,1.251s-.482-.218-.849-.33c-1.039-.317-1.327.424-1.658,1.345a18.361,18.361,0,0,1-1.241,3c-.976,1.71-1.395,2.273-.623,4.162-1.127.167-1.363.3-1.922-.7a5.355,5.355,0,0,1-.689-3.07c.076-2.477-.664-4.617-.519-7.134ZM140.1,51.735a16.584,16.584,0,0,1,1.917,7.523,8.744,8.744,0,0,1-.639,3.778,5.015,5.015,0,0,1-2.709,2.02,13.911,13.911,0,0,1-7.968.584c-1.368-.25-2.7-.088-3.87-.91-.881-.619-1.944-1.22-2.2-2.355a8.1,8.1,0,0,1,.024-1.339,1.22,1.22,0,0,0-.048-.649q-.231-.133-.465-.259c-.123-.354.113-.749.052-1.118-.073-.446-.443-.81-.617-1.214-.477-1.115-.136-1.739.757-2.5q.32-.252.645-.5.291-.461.643,0c.425.006.413.137.86.007.979-.285,1.8-1.328,2.761-1.694.373-.142.929-.021,1.232-.284.27-.235.1-.727.334-.957.759-.736,1.953-.038,2.655-1.108a6.357,6.357,0,0,0,.51-3.1c1.759.336,2.521,2.022,3.966,2.87.286-1.108.327-1.075,1.431-1.379-.5.925.308,1.825.73,2.587Zm1.346-11.762c.324.417.571,1.454,0,1.554Zm1.5,3.77c2.686.005,4.4,3.4,5.186,5.5.852,2.287,1.75,5.338.16,7.565a2.177,2.177,0,0,1-2.34.822c-1.183-.133-1.789-.3-1.326-1.568a8.117,8.117,0,0,0-1.322-7.362c2.113-.408.774-2.347-.287-3.073-1.239-.847-2.24-1.893-.071-1.888ZM81.64,166.484c-.632,1.676-1.274,3.347-1.8,5.073-.5,1.636-.211,3.48-.836,5.053-.384-.19-.494-.528-.829-.733-.206-.127-.565-.177-.742-.317a8.406,8.406,0,0,1-1.241-1.479c-.69-1.2-.23-3.145.139-4.377a11.4,11.4,0,0,1,2.284-4.191c.735-.842,1.14-.574,2.122-.159.581.245,1.179.4.906,1.129Zm-4.786,13.222c-.5,1.021-1.437,1.863-1.991,2.892a25.166,25.166,0,0,1-1.763,3.286c-.755,1.007-1.433.839-2.473,1.273-.373.156-.53.445-.83.67-.563.422-1.18.681-1.772,1.057-.421-1.033-1.707-6.217-3.343-6.106-1.422.1-.695,2.811-.511,3.612a17.357,17.357,0,0,0,.568,2.016c.238.66.98,1.647.706,2.37a.878.878,0,0,1-1.652.188,13.708,13.708,0,0,1-.816-1.933c-.235-.536-1.312-3.471-2.243-3.016-.9.438.5,3.284.731,3.843.564,1.35,1.645,2.647.216,3.728a43.9,43.9,0,0,1-7.268,4.062c-1.418.691-2.693,1.6-4.181,2.16-1.383.521-2.98.61-4.316,1.209-.329.147-.108.331-.589.417a12.158,12.158,0,0,1-1.539-.117,15.9,15.9,0,0,1-2.147-.029c-.4-.05-1.318-.491-1.173.237-.569-.158-.789-.733-1.2-1.091a8.753,8.753,0,0,0-1.255-.745,3.421,3.421,0,0,1-1.749-2.1c-.6-2.325.67-4.745,2.239-6.366.9-.93,1.957-1.7,2.783-2.7a6.018,6.018,0,0,1,.864-1.045c.45-.35,1.068-.393,1.5-.748.325-.263.422-.683.762-.925.5-.357,1.092-.209,1.567-.678.271-.268,1.2-1.53,1.136-1.879l.765.256c.155-.778,1.5-1.737,2.158-2.109.335-.188.986-.179,1.235-.382.331-.27.3-.835.567-1.174.754-.97,2.331-1.406,3.329-2.082a35.8,35.8,0,0,0,3.65-2.852,33.849,33.849,0,0,0,6.032-7.06,21.276,21.276,0,0,0,1.775-3.278c.295-.71.589-1.971,1.317-2.383.752-.425,2.479.151,3.321.211,1.237.089,3.165.034,4.274.642,1.185.65.222,1.187-.388,1.963a12.46,12.46,0,0,0-1.874,3.883,28.45,28.45,0,0,0-.632,3.114,5.784,5.784,0,0,0,.314,3.646c.544,1.014,4.466,2.923,3.9,4.071ZM30.1,200.269c-2.663-3.626-.458-8.933,2.147-11.863,3.143-3.535,7.616-5.523,11.291-8.4,4.249-3.324,8.612-6.412,12.377-10.312a43.43,43.43,0,0,0,5.076-6.4c1.279-1.95,2.207-4.548,4.791-4.83-1.524,1.9-1.613,4.638-2.792,6.754a24.182,24.182,0,0,1-4.961,5.826c-3.956,3.636-8.228,6.967-12.5,10.217-2.181,1.659-4.3,3.392-6.475,5.059-1.946,1.493-3.991,2.77-5.113,5.045-1.935,3.925-2.051,9.74,2.235,12.158-2.208-.44-4.692-1.37-6.076-3.253Zm232.176-163.5c-.788-1.576-2.264-2.138-3.747-2.755a16.472,16.472,0,0,0-4.387-1.54c-.716-.086-2.734.127-2.828-.91-.079-.864,2.03-1.732,2.516-2.39a5.118,5.118,0,0,0,.93-3.793c-.265-1.169-1.4-1.538-2.463-1.75-3.3-.658-6.812-.174-10.122.1a11.678,11.678,0,0,0,1.3-1.71L244,23.1A17.4,17.4,0,0,1,245,21.283l.754.848c-.418-1.467.988-1.46.84-2.7-.057-.481-.383-.692-.463-1.078-.157-.769.436-1.249-.239-1.962-.752-.794-1.981-.479-2.856-.4-.11.01-.269.227-.411.245-.2.025-.31-.246-.553-.232-.652.038-1.228.545-1.876.7a61.1,61.1,0,0,0-8.9,3.175,38.63,38.63,0,0,0-8.379,4.517c-2.74,2.032-4.719,4.644-6.908,7.218a24.421,24.421,0,0,0-2.875,3.764c-.4.72-.771,2.982-1.5,3.311-.791.357-2.78-.653-3.589-.839a21.147,21.147,0,0,0-5.751-.533c-1.553.069-3.191.028-4.731.218-.894.11-3.121,1.1-3.264,2.211-.063.493.5.9.628,1.365.192.7-.125,1.439.1,2.139.45,1.428,2.537,1.953,3.767,2.4,3.434,1.255,6.915,2.229,10.385,3.353a22.143,22.143,0,0,1,4.163,2.047c1.133.647,2.166,1.295,1.022,2.51-1.084,1.151-.948,1.616-.626,3.2.34,1.674.458,3.366.9,5.023s1.267,3.227,1.106,4.974a18.038,18.038,0,0,1-1.555,5.124c-.68,1.611-1.431,3.2-2.171,4.789-.684,1.467-1.424,2.954-3.006,3.58-3.021,1.195-6.88,1.006-10.028.571a49.8,49.8,0,0,1-10.643-2.6,34.858,34.858,0,0,1-9.51-5.327c-1.435-1.187-2.99-2.066-4.513-3.128a36.332,36.332,0,0,1-4.069-3.816,29.6,29.6,0,0,0-9.273-5.654c-3.776-1.561-7.674-1.4-11.675-1.567a16.21,16.21,0,0,0,1.738-3.8,13.012,13.012,0,0,0-.111-4.427,14.787,14.787,0,0,0-2.864-7.5,4.549,4.549,0,0,0-3.088-1.984c-.813-.091-2.315.533-2.9-.155-.258-.3-.2-.942-.361-1.316-.144-.332-.433-.666-.591-1.027a44.836,44.836,0,0,0-2.346-4.366,10.71,10.71,0,0,0-1.045-1.929c-.247-.266-.565-.387-.7-.582a14.05,14.05,0,0,1-.593-1.442,9.149,9.149,0,0,0-4.547-4.149,3.923,3.923,0,0,0-1.831-.28,5.242,5.242,0,0,1-.628.112c-.483-.037-.407-.21-.794-.29-2.589-.539-6.061.217-8.49,1.146a12.133,12.133,0,0,0-6.19,4.586c-3.819,5.693-2.929,13.043-1.309,19.314-.98-.257-1.955-.561-2.945-.78a6.987,6.987,0,0,1-1.973-.428c-1.2-.712-.225-2.537-.217-3.717.019-3-1.4-7.685-4.48-8.95-3.214-1.319-7.124,2.384-9.111,4.483-1.275,1.347-2.434,2.8-3.653,4.194-.852.976-1.978,2.53-3.472,2.276-3.259-.556-2.265-6.756-2.12-8.852.229-3.313.717-6.679.719-10,0-2.019-.348-4.743-2.827-4.979-3.412-.326-6.644,2.778-8.634,5.166-5.247,6.3-6.407,14.62-5,22.522.206,1.158.863,2.588-.391,3.307a42.361,42.361,0,0,1-5.522,2.211,102.084,102.084,0,0,0-11.348,5.641A76.777,76.777,0,0,0,41.022,69.3,117.766,117.766,0,0,0,31.4,77.513c-1.506,1.453-2.96,2.969-4.331,4.551-1.29,1.488-2.336,3.178-3.738,4.569-.955.947-2.711,2.217-2.921,3.662-.17,1.166,1.8,1.975,2.685,2.513.608.37,1.03.358,1.074,1.017.054.822-.812,2.138-1.12,2.922a19.555,19.555,0,0,1-3.162,5.316c-2.99,3.684-6.6,6.807-10.032,10.079-3.186,3.04-6.309,6.033-8.644,9.806-.572.924-2,2.823-.643,3.688a2.39,2.39,0,0,0,1.782.161c.442-.3.218-.747.74-1.046-.131,1,4.431-.958,4.785-1.14.959-.491,1.826-1.067,2.806-1.507.575-.259.644-.618,1.09-.907.238-.154.241.053.559-.043.287-.087.96-.12,1.173-.4.006-.008.239-.676.041-.538.777-.541,1.236.278.77,1.046-1.379,2.271-3.123,3.942-3.663,6.672-.2.991-.531,2.832.074,3.736.022.033.226-.063.251-.028a4.883,4.883,0,0,0,.336.43c.535.512.5.74,1.393.718a4.778,4.778,0,0,0,1.548-.239c.273-.134.406-.466.615-.584s.187-.182.386-.252c.041-.015.119.334.2.319.425-.08.608-.334.97-.539,1.041-.589,2.062-1.237,3.053-1.831s1.743-1.43,2.737-2.124a11.492,11.492,0,0,0,2.731-2.325,8.773,8.773,0,0,1,1.61-1.315c.448-.414,1.22-2.012,1.942-2.2.329-.087.592.2.772.085.2-.134-.018-.391.084-.542a1.865,1.865,0,0,1,.536-.587c.414-.331.922-.419,1.269-.85.386-.48.439-1.017.913-1.466,1.142-1.081,2.159-2.219,3.369-3.267a24.981,24.981,0,0,0-.568,7.845c.351,2.569,1.441,3.719,3.581,5.023a11.124,11.124,0,0,0,1.471.908c.307.124.771.05,1,.141.776.308.512.938.618,1.647.165,1.1,1.176,1.947,1.828,2.8.549.721,1.538,2.361,2.457,2.61.829.225,1.611-.745,2.3-1.158a34.655,34.655,0,0,1,3.273-1.578c2.144-.993,4.216-2.179,6.336-3.23A18.287,18.287,0,0,1,60.7,129.1c1.231-.372,2.282-1.084,3.462-1.57,2.123-.874,4.157-1.916,6.268-2.834,4.368-1.9,9.131-3.2,13.018-6.052,1.758-1.289,4.022-1.426,5.755-2.678,1.806-1.306.7-3.3-.074-4.9-2.113-4.377-3.374-8.922-6.283-12.909-1.511-2.072-2.907-4.212-4.225-6.415-1.166-1.949-1.142-4.157-1.435-6.358-.2-1.471-.38-2.949-.619-4.414-.152-.931-.642-2.1-.049-2.948.637-.907,2.15-1.293,3.106-1.771,1.188-.594,2.339-1.234,3.571-1.737a59.472,59.472,0,0,1,8.739-2.648c.881-.209,4.653-1.707,5.371-.83a5.233,5.233,0,0,0-1.535,2.578,37.737,37.737,0,0,0-1.627,4.1c-.888,2.963-1.643,5.972-2.367,8.978a56.244,56.244,0,0,0-1.8,9.068c-.113,1.57-.035,3.14-.038,4.711,0,1.677-.35,3.321-.288,5a6.568,6.568,0,0,0,.79,3.414c.607.884,1.638.982,2.537,1.455,1.186.623,1.651.889,1.661,2.246.013,1.581-.089,3.134.059,4.714.515,5.5,2.363,12.032,6.053,16.28.245.283,7.4,9.312,8.2,7.99.546.646,1.362.883,2.033,1.446a19.171,19.171,0,0,1,2.964,2.69,15.1,15.1,0,0,1,3.337,6.888,9.942,9.942,0,0,1-1.1,6.726c-1.242,1.91-3.9,3.163-5.9,4.1a14.8,14.8,0,0,1-8.173,1.065c-1.412-.153-2.813-.392-4.215-.617a8.763,8.763,0,0,1-1.816-.314c-.592-.235-.793-.5-1.384-.525a5.873,5.873,0,0,1-1.149-.021c-.578-.121-1.205-.34-1.781-.488a8.17,8.17,0,0,1-1.756-.7c-.546-.28-1.162-.335-1.688-.6-.907-.458-1.186-1.223-2.413-.8-1.295.448-1.024,1.568-1.85,2.335-.735.683-1.644.052-2.375-.354a28.029,28.029,0,0,0-3.338-1.547,33.172,33.172,0,0,0-3.789-1.25,37.241,37.241,0,0,1-4.312-.976c-1.192-.47-1.705-1.38-2.569-2.23a4.349,4.349,0,0,0-3.4-1.155c-2.293.145-3.859,2.625-5.071,4.347a64.636,64.636,0,0,1-11.65,12.688c-2.162,1.8-4.6,3.34-6.689,5.214a14.3,14.3,0,0,1-2.566,2.12c-1.372.773-2.616,1.743-3.928,2.614-5.129,3.409-8.891,8.374-7.472,14.859a10.519,10.519,0,0,0,4.3,6.724,5.357,5.357,0,0,0,3.45,1.414c1.3-.043,2.449-.089,1.683-1.637.971.3,1.784,1.043,2.844,1.423a13.962,13.962,0,0,0,4.107.737c2.076.042,4.519-1.052,6.337-1.517a5.562,5.562,0,0,0,2.067-.82c.461-.38.361-.83,1.058-1.01.914-.237,1.262.04,2.136-.514,1.269-.8,2.646-1.281,3.963-2.022,1.774-1,3.479-2.123,5.236-3.151.234.646,1.611,4.484,2.461,2.633.74-1.611-1.662-2.989-.2-4.62,1.393-1.555,1.684.08,3.036.8,1.876,1,1.595-.87,1.049-1.978-.218-.443-.677-1.112-.542-1.629.26-1,1.068-.413,1.7-.311a2.916,2.916,0,0,0,2.56-.786c.626-.56,1.662-1.043,2.041-1.781.189-.369.222-.877.38-1.269.208-.517.356-.391.431-1.033a3.906,3.906,0,0,1-.087-1.007l.492-.1c0-.023.016-.67-.05-.574.153-.223.482-.317.672-.626.174-.284.012-.829.082-1.164a7.217,7.217,0,0,1,.844-1.832c.668,2.826.475,5.773,1.113,8.6a17.278,17.278,0,0,0,3.11,6.306c.645.882,1.5,1.508,2.175,2.347.572.709.858,1.334,1.7,1.753.562.278,1.193.422,1.772.662.37.154,1.212.862,1.559.85-.3.011.568.038.366,0,.015,0-.1-.379,0-.373,1.262,1.2,2.58,1.2,4.041,1.941a4.407,4.407,0,0,0,1.633.445,26.208,26.208,0,0,0,2.586.746c1.362.087,2.9.269,4.316.219.386-.014,1.112-.263,1.416.075.2.223-.18,1.836-.2,2.205a23.975,23.975,0,0,0,1.9,11.484c1.355,2.939,2.8,6.415,5.2,8.659a20.576,20.576,0,0,0,9.93,4.911c3.934.742,7.833.186,11.779-.044a49.147,49.147,0,0,0,11.569-1.963,95.88,95.88,0,0,0,10.427-3.97c2.337-1.009,5.3-2.461,4.074-5.524-.3-.741-1.445-2.8-2.461-1.784-.9.9.6,2.6,1.284,3.171-5.127,3.576-11.35,4.759-17.349,6.026a47.768,47.768,0,0,1-9.892.676,59.616,59.616,0,0,1-8.5-.307c-2.553-.359-5.525-1.032-7.425-2.9a30.559,30.559,0,0,1-5.224-6.72,18.593,18.593,0,0,1-1.97-8.579,33.246,33.246,0,0,1,.032-4.778c.121-1.149.707-1.286,1-2.194.673.942,1.115.594,1.941.043a11.277,11.277,0,0,1,.2,4.576,24.935,24.935,0,0,0,.293,4.5,15.694,15.694,0,0,0,3.058,7.2,9.779,9.779,0,0,0,2.677,1.944c1.2.81,2.445,1.564,3.7,2.292a18.408,18.408,0,0,0,7.6,2.746c.932.072,1.609.558,2.72.49.659-.04,1.323-.266,1.981-.248a17.809,17.809,0,0,0,1.9.18c2.814-.2,5.715-1.126,8.5-1.632a51.325,51.325,0,0,0,8.932-2.22,5.336,5.336,0,0,0,2.974-2.253c.5-.842.367-2.352,1.294-2.856-.607-.783-.381-.922.143-1.622.245-.327,1.035-1.191.077-1.175.291-1.262-.2-2.482-.4-3.717a4.56,4.56,0,0,0-.395-1.8c-.192-.268-.513-.273-.685-.47a.494.494,0,0,1-.417-.222.337.337,0,0,1,.3-.385c-.048-.417.26-.268-.048-.92a6.944,6.944,0,0,0-1.977-2.272c-.644-.516-1.119-1.432-1.863-1.707-.968-.358-1.983-.748-3-1.08a14.249,14.249,0,0,0-7.013-.624,24.208,24.208,0,0,0-3.271.769c-.626.2-1.584.742-2.139.158A7.678,7.678,0,0,1,135.41,201c.1-.738,1.606-1.036,2.156-1.293.84-.394,2.4-.814,2.929-1.6.224-.328-.029-1.718.008-1.743.352-.238,1.832,3.14,2.234,3.37.583.333,2.219-.107,2.822-.173a42.1,42.1,0,0,0,5.383-.738c3.375-.822,6.688-2.093,9.972-3.217a87.279,87.279,0,0,0,17.9-8.453,30.933,30.933,0,0,0,7.225-6.1c.9-1.07,1.536-2.339,2.455-3.389,1.061-1.211.726-2.3,1.2-3.819a64.527,64.527,0,0,0,2.655-9.074,49.061,49.061,0,0,0,.613-10.046c-.3-6.627-.617-12.91-3.529-19a67.617,67.617,0,0,0-10.238-15.652,19.085,19.085,0,0,0-3.139-2.932,35.589,35.589,0,0,1-3.8-2.667c-.939-.872-1.724-1.9-2.706-2.726a16.635,16.635,0,0,0-4.051-2.113c-1.353-.621-2.588-1.429-3.972-2a22.588,22.588,0,0,0-2.573-.9,9.352,9.352,0,0,1-2.1-.526,10.777,10.777,0,0,1-2.513-2.962,13.968,13.968,0,0,1-1.805-4.254c-.518-1.809-1-3.63-1.506-5.443-.173-.619-.82-2.775.47-2.252.377.153.731.833,1.022,1.124a8.622,8.622,0,0,0,1.915,1.42,32.206,32.206,0,0,0,3.308,1.75,20.99,20.99,0,0,1,2.759,1.606c.132.079.171.35.341.425.4.178.667-.313,1.045-.192.516.164.6.651.888,1.038a2.36,2.36,0,0,0,1.266.9c.706.321,1.225.957,1.913,1.272.836.382,2.677.086,2.8,1.4,1.3-.849,2.93.8,3.741,1.655.817-1.254,2.263.214,3.5-.2-.684.951-.56.856.519.974.911.1,1.456.7,2.356,1.056a19.919,19.919,0,0,0,1.96.824c.613.162,1.077-.2,1.61-.11.368.063.718.381,1.068.468.443.11,1.075.245,1.577.364.61.145,1.217.012,1.826.127.71.134,1.323.557,2.044.695.8.153,1.639.051,2.438.246a7.51,7.51,0,0,0,1.925.389,29.461,29.461,0,0,0,3.492.033c.592-.068.919-.368,1.589-.074.447.2.714.8,1.323.523-.643-.258-.079-1.261.63-.492.168-.431.276-.671.742-.813-.023.422-.092.845.445.933q.062-.441.124-.88c1.169.89,1.445,1.2,2.549.118-.03.356-.18.758.182,1.01l.694-1.153c.391,1.24,2.256.812,3.16.592.351-.085,1.319-.22,1.548-.508a1.394,1.394,0,0,0,.2-.478c.052-.109-.542-.375-.036-.531.381-.118.678.718,1.125.684.4-.03.56-.705.847-.842.027-.013.222.273.357.21.21-.1.329-.353.561-.443.5-.2,1.15-.147,1.712-.38.712-.295,1.43-.436,2.158-.679a8.425,8.425,0,0,0,2.088-1.409c.176-.116.358-.049.531-.131.232-.111.475-.37.752-.493a16.14,16.14,0,0,0,2.429-1.176,20.382,20.382,0,0,0,2.353-1.39c.543-.472.836-1.162,1.382-1.643.784-.69,2.811-1.556,2.482-2.9,1.312.2,1.633-.649,2.114-1.586.458-.891,1.4-1.158,2.011-1.971a5.936,5.936,0,0,0,.839-1.239c.087-.238-.131-.487-.072-.65.272-.749,1.322-1.076,1.808-1.751.618-.859.817-1.946,1.333-2.829.1-.174.351-.277.448-.462.062-.119-.067-.414.008-.531.18-.277.463-.373.644-.63.437-.622.517-1.507.91-2.212.1-.174.434-.659.476-.762a4.271,4.271,0,0,0,.172-.962c.022-.116.246-.789.292-.885.144-.3.284-.344.5-.674a6.706,6.706,0,0,0,.94-3.121,4.006,4.006,0,0,1,.032-1.269c.132-.35.541-.566.7-.933a12.794,12.794,0,0,0,.449-3.35c.121-1.121.479-2.227.579-3.34.048-.539-.2-1.016-.186-1.524.021-.581.323-.69.439-1.173.132-.552-.062-1.188.057-1.781a13.8,13.8,0,0,0,.317-1.626,36.7,36.7,0,0,0-.113-4.483,5.689,5.689,0,0,1,.05-1.727c.122-.45.618-.953.6-1.442-.051-1.509-1.257-.2-1.951-.306-.806-.12-.955-1.93-1.167-2.616L239.4,45.358c2.475-.644,5.048-.459,7.575-.633a41.69,41.69,0,0,0,7.314-1.316c2.033-.512,4.257-.809,6.083-1.9,1.534-.918,2.8-2.95,1.9-4.742Z" transform="translate(0 -10.801)"/><path class="b" d="M64.826,139.43c.99-.515.74-1.226,1.467-1.887a73.945,73.945,0,0,1,13.629-9.593c5.042-2.809,10.7-4,15.853-6.488.693-.335,1.594-.858,1.335-1.791-.3-1.09-1.34-.588-2.08-.331-2.465.857-5.088,1.18-7.588,1.933A51.154,51.154,0,0,0,72.588,128.9a52.94,52.94,0,0,0-7.4,6.317c-.827.862-1.93,1.869-2.145,3.112-.267,1.538.643,1.7,1.779,1.1" transform="translate(-42.89 -81.014)"/><path class="b" d="M67.3,483.921c-.024-1.359-1.5-.865-2.265-.682-3.1.743-5.863,1.312-8.6,3.033a31.225,31.225,0,0,0-11.429,13.414c-.332.714-1.668,2.979-.6,3.652.706.445,1.134-.85,1.4-1.33a41.358,41.358,0,0,1,4.947-6.736,34.251,34.251,0,0,1,14.607-9.9c.708-.268,1.959-.462,1.942-1.45" transform="translate(-29.955 -328.821)"/><path class="b" d="M638.016,368.845c-1.071-2.154-2.8-4.813-5.2-5.7-1.325-.491-2.11.321-1.716,1.679.313,1.08,1.357,1.607,2.137,2.323a15.551,15.551,0,0,1,3.976,7.147,30.3,30.3,0,0,1,.915,8.426,28.562,28.562,0,0,1-.615,4.2c-.084.565-.227,1.81.422,2.162,1.438.781,2.1-3.3,2.249-4.083a24.046,24.046,0,0,0,.033-8.447,26.365,26.365,0,0,0-2.2-7.7" transform="translate(-429.578 -247.126)"/><path class="b" d="M636.626,18.192c.585-.789.158-1.893.332-2.793a9.794,9.794,0,0,1,1.187-2.721,56.651,56.651,0,0,1,3.285-5.19c1.22-1.715,2.709-3.176,4.006-4.824.439-.557,1.216-1.354,1.026-2.025-.307-1.086-.975-.557-1.511-.1a40.321,40.321,0,0,0-7.587,8.782,14.146,14.146,0,0,0-2.249,5.02,6.074,6.074,0,0,0,.108,2.833c.175.577.7,1.967,1.4,1.019" transform="translate(-432.301 0)"/><path class="b" d="M69.549,468.216c1.467-.136,2.942-.184,4.412-.259a7.944,7.944,0,0,0,3.311-.513c1.005-.527.568-1.317-.267-1.434a13.376,13.376,0,0,0-1.806.279c-.558.024-1.118.007-1.676.009a15.493,15.493,0,0,0-4.961.536c-.513.177-1.291.45-1.5,1.038-.452,1.255,1.809.408,2.49.345" transform="translate(-45.613 -317.248)"/><path class="b" d="M114.39,106.192c2.13-.255,4.189-.894,6.288-1.3,2-.387,2.335-1.96-.027-1.889-.793.024-8.44,1.474-6.26,3.19" transform="translate(-77.61 -70.121)"/><path class="b" d="M664.839,360.052c-1.431-.358-.691,1.229-.248,1.72a5.3,5.3,0,0,1,1.51,2.8c.142.7.009,2.3.607,2.834s.63.178.734-.477c.295-1.845-.294-6.3-2.6-6.875" transform="translate(-452.044 -245.084)"/><path class="b" d="M615.088,31.534c.405-.43-.029-2.3.018-2.846a8.272,8.272,0,0,1,.413-1.848c.1-.3.58-1.368.319-1.7-.36-.459-.96.316-1.15.622a6.81,6.81,0,0,0-.659,3.767c.037.4.282,2.826,1.058,2" transform="translate(-418.004 -17.02)"/><path class="b" d="M336.8,529.512c.067-1.059,1.087-1.792,1.089-2.918,0-1.265-.847-1.812-1.907-.99-.639.5-1.137,1.7-2,1.861-1.734.318-2.414-2.8-4.122-2.436-1.478.312-.7,2.851-.255,3.708.473.908,1.331,1.545,1.052,2.663-.332,1.327-1.471,2.091-1.028,3.606.823,2.814,2.609.183,3.684-.7.765-.63,1.228-.518,1.971.1a12.6,12.6,0,0,0,3.032,1.992c1.089.5,2.14.854,2.173-.834a5.526,5.526,0,0,0-1.855-3.549c-.73-.747-1.908-1.323-1.834-2.5" transform="translate(-223.98 -357.414)"/><path class="b" d="M275.509,525.314c-1.274-1.359-2.884,2.107-3.914,2.49-1.669.622-2.053-2.71-3.59-2.605-1.2.082-1.1,1.8-.841,2.578.28.842,1.119,1.53,1.26,2.392.216,1.322-2.285,3.964-.54,5.24,1.49,1.09,2.045-2.593,3.907-1.09.914.737,3.473,3.482,4.74,2.116,1.5-1.614-2.065-4.371-2.715-5.6-.88-1.662,3.56-3.532,1.693-5.523" transform="translate(-181.771 -357.414)"/><path class="b" d="M364.247,366.461c-.365-.161-.956.105-1.352.088a10.851,10.851,0,0,1-1.285-.282c-.91-.156-2.51.069-3.156-.742-.659-.827-.158-2.489-.44-3.5-.153-.547-.33-1.223-1.067-.979-.855.283-.835,1.854-.937,2.543-.15,1.017-.272,1.792-1.293,2.154-.757.267-1.552.133-2.164.754a1.673,1.673,0,0,0-.4,1.882c.527.894,1.668.431,2.459.713,1.207.431.92,2.4,1.167,3.535.158.727.507,2.765,1.551,2.732,1.424-.044.871-2.906.792-3.742s-.271-1.566.675-1.83c.8-.222,1.915.191,2.74.185a3.424,3.424,0,0,0,2.9-1.2c.359-.534.587-1.972-.19-2.315" transform="translate(-239.638 -245.765)"/><path class="b" d="M548.663,469.764c2.265.2.892,2.986,2.4,4.1,1.434,1.059,1.627-1.863,1.626-2.7,0-2.021,2.456-1.274,3.953-1.608,1.276-.285,2.67-1.611,1.146-2.74-1.1-.815-2.925-.437-4.2-.653-1.731-.293-1.217-1.449-1.255-2.781-.014-.488-.182-2.229-.813-2.367-1.155-.251-1.224,2.992-1.3,3.609-.329,2.611-2.123,1.02-3.547,2.329-1.862,1.711.65,2.7,2,2.813" transform="translate(-371.711 -313.843)"/><path class="b" d="M185.656,306.715c-3.538,2.9-7.556,2.484-10.794-.637a5.536,5.536,0,0,1-2.074-4.583,6.786,6.786,0,0,1,2.012-4.834c1.172-.99,3.383-1.344,4.867-1.483a6.967,6.967,0,0,1,5.381,2.354c1.253,1.232,2.718,2.8,2.911,4.632.2,1.925-.893,3.394-2.3,4.55m.538-11.54c-3.174-3.056-8.8-2.75-12.079.038-3.678,3.129-4.307,9.006-.772,12.434,3.725,3.612,8.642,3.222,12.585.226a8.748,8.748,0,0,0,3.557-6.315c.278-2.5-1.556-4.711-3.291-6.382" transform="translate(-116.415 -199.471)"/><path class="b" d="M404.827,135a10.2,10.2,0,0,0-.046,3.57c-1.006-.63-1.632-1.752-2.713-2.273-.518,1.431,2.063,5.525,3.688,4.183,1.486-1.228.389-4.655-.93-5.48" transform="translate(-273.677 -91.907)"/><path class="b" d="M421,156.355a13.139,13.139,0,0,1-2.335.369c-.521.1-.588-.2-.656.4-.144,1.273,1.91,1.766,2.836,1.748,1.129-.022,2.367-.781,2.258-2.018-.113-1.288-1.232-.825-2.1-.5" transform="translate(-284.57 -106.203)"/><path class="b" d="M425.059,137.387c-.363-.33-1.2-1.576-1.815-1.363-.471.163-.138.726,0,1.008a12.438,12.438,0,0,0,2.343,2.8c-.6.213-1.758.351-1.452,1.275.281.849,1.554.719,2.164.361,2.089-1.225-.194-3.133-1.24-4.082" transform="translate(-287.974 -92.587)"/><path class="b" d="M431.253,130.617a2.141,2.141,0,0,1-.1,1.68l-1.74-3.121c-1.4.575,1.055,5.071,2.485,4.573.989-.344.514-2.458.358-3.123-.084-.356-.282-1.488-.776-1.6-.971-.226-.337,1.163-.231,1.593" transform="translate(-292.059 -87.822)"/><path class="b" d="M191.992,312.023c-.807-.6-2.144.8-3,.8-1.725.009-.785-2.014-1.865-2.669-.563-.342-2.919,0-2.547-1.413.224-.852,1.1-.237,1.579-.757.6-.652-.256-1.172-.79-1.44a2.43,2.43,0,0,1,1.924-.234c.585.374.552,1.495,1.089,2.072.7-.89.319-2.008,1.061-2.807.288-.311,1.132-.544.8-1.1-.19-.322-1.023-.215-1.308-.471-.249-.223-.236-.943-.638-1-.656-.1-.64.9-.837,1.194-.593.87-3.2.57-2.118,2.334-.719-.359-2.681-.643-2.3.61.1.32.468.516.56.882a4.159,4.159,0,0,1-.112,1.085,2.36,2.36,0,0,0,.366,1.791c.612.666,1.431.181,2.088.471.9.394.573,1.214,1.045,1.932.618.938,1.569.65,2.444.366,1.044-.339,1.209-.369,1.972.5.349-.451,1.306-1.614.58-2.149" transform="translate(-124.584 -206.279)"/><path class="b" d="M208.373,315.849c-.842-.156-.51-2.665-1.535-1.575-.384.408.009,1.206-.419,1.644-.288.294-.653.121-.941.314-.259.173-.325.505-.477.758a2.335,2.335,0,0,0,1.539.169c0,.436-.29,1.718.454,1.625.691-.087.5-1.375.848-1.775s1.8-.218,1.932-.79c.166-.708-1.032-.3-1.4-.37" transform="translate(-139.562 -213.768)"/></g></g></svg>