<svg xmlns="http://www.w3.org/2000/svg" width="295.935" height="156.729" viewBox="0 0 295.935 156.729"><defs><style>.a{fill:#f5f5f5;}.a,.b{fill-rule:evenodd;}</style></defs><g transform="translate(-42 -146.003)"><path class="a" d="M218,395.744l.8,10.053,15.23,3.619,11.623,5.227,9.218,8.042,4.409-3.619,5.611-12.465,6.412-1.206,23.245,2.413,8.016,2.412-2.805,13.671-2.806,10.052,46.491-2.815-1.6-23.321L332.224,386.5,294.149,368l-28.456,3.619-20.039,22.115-8.817,4.825-15.63-.8" transform="translate(-122.018 -153.907)"/><path class="b" d="M287.679,149.441c3.132,3.808-1.482,9.192-4.1,11.849-1.27,1.29-2.323,2.781-3.564,4.1-1.227,1.306-2.766,2.334-3.867,3.6a40.019,40.019,0,0,0-3.458,4.264,12.628,12.628,0,0,0-1.824,3.094c-.437,1.575-.072.665.506,1.556a4.041,4.041,0,0,1,.989,2.23,7.659,7.659,0,0,0,1.136,3.187,33.487,33.487,0,0,1,3.055,5.283c1.028,2.551,1.756,5.14,2.575,7.764a17.3,17.3,0,0,0,1.05,3.138c.732,1.339.835,1.227,1.925.392,3.253-2.493,6.542-5.129,9.934-7.5,1.942-1.361,3.96-2.694,6.01-3.887,1.407-.819,4.43-2.275,5.135-3.794.934-2.015-.52-3.863,1.481-5.718a10.55,10.55,0,0,1,5.124-2.172c2.4-.414,5.05.178,7.447.392a24.26,24.26,0,0,0,7.169-.515c3.638-.759,10.625-4.958,12.982.086,1.034,2.207.334,4.653.141,6.915a11.048,11.048,0,0,1-1.976,5.687c-1.4,1.853-3.447,1.95-5.573,2.442-2.51.581-5.087.792-7.6,1.359a21.191,21.191,0,0,1-3.731.474c-1.131.052-2.763-.406-3.756-.261-.942.137-.62.732-1.281,1.143-.268.167-.815.047-.982.182a3.359,3.359,0,0,0-.928,1.361,51.257,51.257,0,0,1-4.044,6.147,50.808,50.808,0,0,1-3.845,5.115c-2.876,3.105-5.668,6.526-8.506,9.771a47.473,47.473,0,0,1-4.854,4.826c-.518.438-1.565.832-1.829,1.446-.378.874.65,2.8.889,3.677.57,2.089.647,4.247,1.252,6.3a28.362,28.362,0,0,1,.917,6.165c.29,4.636.924,9.033.775,13.672-.129,4-.275,7.837-1.664,11.765a16.331,16.331,0,0,1-8.576,8.785,40.066,40.066,0,0,1-6.155,1.922c-2.084.42-4.28.85-6.35,1.441a66.253,66.253,0,0,1-11.874,2.238,122.406,122.406,0,0,1-15.518.35c-2.321-.081-4.707-.086-7-.079a68.274,68.274,0,0,0-6.984.724c-8.375.878-17.225.172-25.6,1.031-4.137.424-8.267,1.242-12.476,1.291-3.768.043-7.589-.205-11.274-.222a14.359,14.359,0,0,1-3.355-.18c-.616-.141-1.482-.692-2.1-.375-.543.277-.953,1.446-1.289,1.943a17.674,17.674,0,0,1-2.579,2.864c-3.758,3.581-7.482,4.788-12.413,6.1a13.071,13.071,0,0,0-5.283,2.3,19.9,19.9,0,0,1-4.9,2.592c-3.5,1.3-7.618.294-10.9-.833-1.591-.545-3.263-1.042-4.888-1.689-2.214-.882-4.041-2.347-6.223-3.248.25,2.328-2.275,3.11-3.041,4.675-.495,1.011-.195,2.6-.723,3.741a3.828,3.828,0,0,1-2.426,2.339c-1.608.378-4.483-1.411-5.613-2.455-.627-.58-1.187-2.123-1.955-2.38-1-.336-2.837,1.146-3.785,1.48a29.743,29.743,0,0,1-14,1.719c-4.935-.647-9.46-2.4-14.088-4.061-9.064-3.255-16.954-8.612-24.052-15.063a5.809,5.809,0,0,1-1.24-1.15c-.238-.411-.217-1.381-.372-1.61-.463-.683-1.155-.562-2.023-.627a10.966,10.966,0,0,1-6.886-2.645c-3.269-2.827-4.479-9.417.533-11.167a7.582,7.582,0,0,1,4.015-.261c.546.114,2.578,1.345,3.1,1.263.787-.125.634-1.138.843-1.679a14.826,14.826,0,0,1,2.176-3.742,36.421,36.421,0,0,1,5.186-5.453c2.03-1.711,4.267-2.47,6.684-3.417,1.629-.638,4.808-1.734,6.533-1.163,2.246.743,1.147,3.2-.269,4.058-2.022,1.227-4.448,1.73-6.5,2.971a64.347,64.347,0,0,0-6.395,4.893c-1.665,1.325-3.108,2.961-4.8,4.231a11.572,11.572,0,0,0-1.32,1.112c-.048.064.011.588-.211.821-.984,1.033-.754.916-2.235.554-1.747-.427-5.916-1.394-7.094.772-1.06,1.949,3.278,3.705,4.7,4.3,2.091.872,2.58,1.749,4.074,3.411,1.53,1.7,4.073,2.862,5.99,4.132,4.144,2.745,8.8,4.693,13.241,6.874a104.947,104.947,0,0,0,13.462,5.134,43.424,43.424,0,0,0,8.824,2.134,28.677,28.677,0,0,0,8.387-.738,19.947,19.947,0,0,0,3.157-.8,7.2,7.2,0,0,0,1.8-.536c.646-.5.378-.9.492-1.761.5-3.762,3.11.438,4.265,1.69a12.137,12.137,0,0,0,2.941,2.767c1.47.767,1.725.405,2.207-.859.9-2.368,1.241-5.06,4.649-4.713a58.856,58.856,0,0,1-7.557-7.024c-2.272-2.729-4.4-5.662-6.575-8.466-1.786-2.3-3.341-5.471-5.659-7.284-.733-.573-2.96-1.894-3.808-1.866-1.269.041-2.4,2.115-3.763,2.287A2.1,2.1,0,0,1,93.28,266.8c-.447-1.272.622-2.736.261-3.661-.1-.257-.743-.566-.942-.939a3.253,3.253,0,0,1-.231-1.921,8.594,8.594,0,0,0,.391-2.239c-.081-1.084-.557-1.877-.183-3.011.393-1.191,1.6-1.844,2.356-2.724,1.142-1.332.559-2.336.1-4.046-.981-3.661-2.125-7.28-3.12-10.938-2.289.724-4.528,1.546-6.829,2.221a44.6,44.6,0,0,0-7.007,2.257c-1.234.616-.891.05-.8,1.417a22.9,22.9,0,0,0,.606,2.747c.321,1.612.461,5.772,1.723,6.542.765.466,1.995-.211,2.835.731.708.792.5,1.944.922,2.825.265.547.777.756,1.1,1.259a6.154,6.154,0,0,1,.712,3.115c.074.742-.04,2.965.329,3.542.492.769,1.468.636,2.291.876a19.914,19.914,0,0,1,5.744,2.878c.914,1.117,7.454,7.66,4.614,8.493-1.372.4-3.8-2.688-4.785-3.528a16.588,16.588,0,0,0-5-2.875c-4.553-1.752-8.673-3.327-13.632-2.6-2.126.312-4.708,1.253-6.844,1.046s-1.592-2.125-.248-3.2c1.2-.956,2.874-.687,3.4-2.291.532-1.62-.039-3.668.815-5.291a11.106,11.106,0,0,1,3.776-3.629c.578-.35,1.57-.595,1.873-1.111.248-.423-.774-2.849-.916-3.354-.693-2.471-1.45-4.944-2.037-7.442-.545-2.315-.686-3.515,1.752-4.355,3.721-1.283,7.623-1.883,11.346-3.062-.66-1.719-2.723-.273-4.2-.332a22.694,22.694,0,0,1-5.643-1.228,10.328,10.328,0,0,1-7.2-8.494c-.133-.893.287-2.684-.038-3.474-.307-.746-1.174-1.109-1.808-1.64a15.19,15.19,0,0,1-3.962-5.2,9.45,9.45,0,0,1-.432-6.2c.282-1.134.442-1.29.043-2.362-.463-1.24-1.218-2.345-1.645-3.619a19.749,19.749,0,0,1-1.042-6.543c.043-2.473,1.035-3.583,1.692-5.763.519-1.721-.189-4.1-.071-6.01a16.321,16.321,0,0,1,1.857-6.583c1.659-3.342,4.287-6.925,7.707-8.678.677-.347,1.788-.367,2.392-.77.751-.5.81-1.239,1.1-2.116a13.683,13.683,0,0,1,3.093-5.385c4.917-5.186,13.533-7.022,20.443-6.584,1.241.079,2.424.666,3.6.321.815-.239,1.678-1.088,2.518-1.44a11.208,11.208,0,0,1,3.273-.819,13.085,13.085,0,0,1,6.179.776c.786.288,1.539.6,2.314.916,1.223.494,1.154.259,2.3.03a7.719,7.719,0,0,1,5.642.86,10.95,10.95,0,0,1,1.863.82c.659.517.928,2.09,1.661,2.383.407.163,1.665-.437,2.19-.522a17.949,17.949,0,0,1,2.754-.028,10.188,10.188,0,0,1,4.844.814,26.406,26.406,0,0,1,3.437,2.446c1.336,1.032,2.171,2.983,3.84,3.523.653.212,1.361,0,2.028.178a7.3,7.3,0,0,1,2.41,1.421c1.212.957,2.237,3.181,3.471,3.57.824.26,2.1-.011,3.047.258a6.517,6.517,0,0,1,3.04,1.722c1.673,1.708,2.145,4.232,2.217,6.547.019.624-.366,2.384.008,2.938.332.491,1.583.775,2.092,1.279a10.345,10.345,0,0,1,2.472,6.364c.184,2.464-.452,4.2-.89,6.559-.273,1.47-.626.528.615,1.394a5.8,5.8,0,0,1,1.992,1.943,10.818,10.818,0,0,1,1.254,6.474c-.238,2.774-1.645,4.842-2.278,7.467a49.962,49.962,0,0,1,8.9,1.308,10.819,10.819,0,0,1,2.8,1.239,15.24,15.24,0,0,0,2.165.711c1.838.641,1.483.534,2.761-.778a27.352,27.352,0,0,1,19.654-8.276,33.772,33.772,0,0,1,11.835,2.063,23.55,23.55,0,0,1,4.738,2.218c1.624,1.106,1.865,1.093,4.012,1.138,7.774.161,15.317,4.337,20.974,9.4.505-3.394,6.018-5.43,8.688-6.837.912-.481,1.75-.731,2.2-1.632.42-.843.4-2.577.676-3.57a21.64,21.64,0,0,0,1.064-5.978c-.133-5.567-1.422-11.109-1.588-16.689a27.841,27.841,0,0,1-.015-4.362c.15-1.118.66-1.815-.073-2.85-1.393-1.965-3.961-2.455-4.824-5.041-1.392-4.168,1-8.429,4.262-10.908,1.879-1.427,3.715-1.729,5.221-3.73a63.4,63.4,0,0,1,4.049-5.573c1.3-1.374,2.478-3.214,3.964-4.357a18.438,18.438,0,0,1,5.579-2.521C279.244,145.386,284.606,145.706,287.679,149.441ZM151.172,254.136c-1.016.043-2.038.158-3.056.156a9.8,9.8,0,0,0-2.616-.1c-1.115.472-2.017,3.053-2.538,4.084-1.688,3.34-3.017,6.842-4.664,10.194a4.535,4.535,0,0,1-4.157,2.919c-2.264.031-3.33-1.42-4.767-2.909a48.026,48.026,0,0,0-10.28-7.588,41.627,41.627,0,0,0-12.8-5.18c-2.913-.524-9.588-2.786-11.36.868.906-.121,4.363-.65,4.509.882.11,1.15-4.142,1.346-4.668,3.149,1.112-.086,4.95-1.158,5.22.495.144.878-1.46,1.321-2.025,1.617a10.146,10.146,0,0,0-2.671,2.082c1.358,0,2.7-1.153,3.986-1.033.532.05,1.171.845,1.655,1.087a6.655,6.655,0,0,0,2.184.609c1.648.2,2.645-.261,3.959.813,1.18.964,2.406,2.236,3.493,3.308a76.137,76.137,0,0,1,6.219,7.77,39.411,39.411,0,0,0,8.276,8.079,49.393,49.393,0,0,0,8.37,4.617c2.957,1.4,6.676,3.021,10.03,3.1a20.671,20.671,0,0,0,8.455-1.939,10.468,10.468,0,0,1,3.348-.926,32.231,32.231,0,0,0,6.782-2.515c6.394-2.909,10.446-9.25,13.329-15.456a42.855,42.855,0,0,0,3.35-10.805c.372-2.082.7-2.571-1.331-3.431a55.879,55.879,0,0,0-6.395-2.021A63.889,63.889,0,0,0,151.172,254.136Zm15.279-37.674c-.638.287-.977,3.356-1.264,4.039a7.96,7.96,0,0,1-6.869,5.271c-1.032.1-2.715-.841-3.455-.4-.99.6-1.169,3.438-2.235,4.371a12.817,12.817,0,0,1-4.283,2.1,5.95,5.95,0,0,1-2.9-.04c-.552-.128-1.605-.81-2.146-.553-.92.439-1.354,2.774-2.4,3.566a10.626,10.626,0,0,1-5.857,1.994c-1.94-.022-4.278-1.555-6.005-1.188-2.05.435-1.78,2.343-2.675,3.833-1.9,3.166-4.061,5.893-7.478,7.4A22.934,22.934,0,0,1,106,247.871a16.869,16.869,0,0,1-6-2.3c-1.417-.963-2.481-2.245-3.793-3.332l-.215-.174L96,242.1c.029.1.059.2.089.3.625,1.993.9,5.529,2.145,7.155,1.111,1.455,4.969,1.536,6.827,1.732a33.407,33.407,0,0,1,13.65,4.187,75.18,75.18,0,0,1,11.681,8.4c.748.64,1.345,1.667,2.249,2.079,1.477.673,1.357-.113,1.748-1.428a52.771,52.771,0,0,1,2.872-7.9c.523-1.09,1.712-2.44,1.968-3.6.244-1.11-.258-2.322-.087-3.514a18.5,18.5,0,0,1,3.494-8.015c1.183-1.69,4.722-4.569,4.27-.314-.334,3.142-2.628,5.925-3.192,9.012a15.492,15.492,0,0,1,4.4-.131c2.137.135,4.566-.7,6.768-.708a68.642,68.642,0,0,1,12.531,1.014,35.2,35.2,0,0,1,5.605,1.4c1.456.517,3.392,2.162,4.943,2.288,1.125.091.732.239,1.039-.721a11.565,11.565,0,0,0-.078-3.426c-.129-2.114-.635-4.171-.9-6.27-.113-.9-1.188-4.657-.053-5.385,1.736-1.114,2.462,3.257,2.683,4.04a42.945,42.945,0,0,1,1.827,12.163,59.72,59.72,0,0,1-.95,10.725,31.535,31.535,0,0,1-1.963,6.176c-.435,1.053-2.986,5.043-2.631,5.745.284.563,4.62-.417,5.287-.474,2.373-.2,4.752-.062,7.128-.2a86.568,86.568,0,0,0,10.411-.785c2-.37,4.133-.016,6.136,0,2.209.014,4.344-.19,6.568.021,1.688.16,4.222,1.051,5.851.681,1.668-.379,1.175-1.5,1.187-3.193a58.335,58.335,0,0,0-1.254-12.813c-.483-2.1-1.133-4.139-1.48-6.277s-.329-4.45-.974-6.522c-1.144-3.675-4.29-6.865-6.9-9.58a42.56,42.56,0,0,0-8.954-6.828,75.293,75.293,0,0,0-8.781-4.635c-3.636-1.6-7.765-2.585-11.135-4.691a38.968,38.968,0,0,0-10.1-4.291C169.422,217.38,166.812,216.3,166.451,216.462ZM266.333,182.5c-2.333.328-6.694-.812-6.692,2.405,0,1.764.586,3.615.752,5.38.2,2.083.06,4.18.378,6.255.514,3.359,1.267,6.461,1.015,9.912-.275,3.752-1.057,7.356-.984,11.162.069,3.621-.126,7.113,1.595,10.436.726,1.4,1.315,3.051,2.114,4.364a5.459,5.459,0,0,0,3.42,2.609c1.048.388,3.628.893,4.307,1.939.98,1.509-.328,2.12-1.618,2.069-3.981-.159-8.069-1.935-11.8-3.232-1.756-.611-3.447-1.38-5.172-2.047a14.228,14.228,0,0,1-3.758-1.626c-3.057-2.215-5.416-5.275-8.43-7.547a39.612,39.612,0,0,0-19.7-7.625,24.822,24.822,0,0,0-5.115.048c-1.021.087-2.032.114-3.043.3-.584.109-2.78,1.152-3.236.935-2.963-1.408,5.427-5.7,6.37-5.931-1.192-.84-3.668-.7-5.1-.882a29.257,29.257,0,0,0-5.444-.371,49.534,49.534,0,0,0-7.848.621,35.91,35.91,0,0,0-9.035,3.268c-.956.5-2.3,1.11-2.292,2.507.009,1.312.531,1.1,1.809,1.388,3.443.784,6.629,3.065,9.7,4.8a98.52,98.52,0,0,1,9.535,6.139c5.8,4.245,9.112,10.353,11.689,16.992a45.573,45.573,0,0,1,2.7,11.1c.447,4.072.074,8.167.393,12.234.075.961.2,4.8.929,5.395.55.453,3.281-.357,4.05-.41,3.217-.221,6.454-.2,9.611-.382,6.671-.384,13.51.152,20.241-.244a69.405,69.405,0,0,0,9.985-1.359c3.087-.635,6.933-.711,9.748-2.178,5.42-2.824,8.724-9.632,8.962-15.4a79.766,79.766,0,0,0-1.481-19.274c-.688-3.264-1.284-6.371-2.094-9.6-.906-3.611-1.924-7.207-2.918-10.773-1.714-6.139-4.38-11.859-5.657-18.152-.7-3.461-1.7-7.08-2.736-10.458-.383-1.245-1.138-3.611-2.029-4.557C268.512,181.733,267.726,182.3,266.333,182.5ZM76.159,257.271a5.658,5.658,0,0,0-2.354,4.587c0,2.2,1.826,1.263,3.547,1.343,1.047.048,4.922,1.123,5.6.086.813-1.239-1.633-.686-1.942-1.35-.626-1.344,2.244-1.911,1.893-3.076s-3.267,1.523-3.892.171c-.578-1.252,2.367-2.335,1.915-3.2C80.545,255.1,76.656,256.953,76.159,257.271Zm6.1-11.462c-.007.938-.33,2.185-1.5,1.993-1.456-.239-1.9-3.033-2.03-4.091C79.667,240.23,82.277,243.674,82.261,245.809Zm42.266-29.924c-1.683.264-1.873,1.017-2.66,2.174a1.819,1.819,0,0,1-.667-1.139,48.146,48.146,0,0,1-12.435,3.856c-4.809.739-9.825-.379-14.711-.835-.632-.059-2.573-.841-3.089-.53-.426.257-.419,2.414-.454,2.83a33.906,33.906,0,0,0,.721,8.132c.111.74,0,2.344.586,2.975.41.444,1.141.283,1.661.953,1.4,1.81,1.838,5.314,2.483,7.648l.016.057,0-.042c.2-2.379,2.059-1.157,3.443-.533a23.606,23.606,0,0,0,6.511,1.755,31.417,31.417,0,0,0,5.719.763,30.229,30.229,0,0,0,6.246-1.429c1.8-.526,2.791-1.665,4.032-3.13a52.051,52.051,0,0,1,3.756-3.608c3.224-3.147,2.341-9.669-.459-12.749,2.266-1.163,6.195-3.719,2.749-6.312A5.054,5.054,0,0,0,124.527,215.885Zm-28.55,26.121,0,.043.02.016Zm11.039-5.4a1.316,1.316,0,0,1,1.3,1.665c-.3,1.17-2.331,1.9-3.347,1.967C102.274,240.558,104.823,236.437,107.016,236.6Zm-8.51-4.5c.1.679,0,1.1.589,1.323.45.169,1.3-.178,1.854.056s.57.376.909.927c-.384,1.2-2.146,2.561-3.56,1.838-1.758-.9-1.922-4.443-1.44-5.956C97.675,227.727,98.362,231.09,98.506,232.1Zm156.347-13.538A12.709,12.709,0,0,0,252.816,220c-1.745,1.094-3.654,1.675-5.325,2.872,1.194,1.288,1.819,3.034,2.985,4.274a6.91,6.91,0,0,0,2.494,1.283c2.564,1.23,5.581,2.961,8.413,3.549a21.3,21.3,0,0,1-3.695-6.053c-.352-.843-.793-1.734-1.057-2.61-.378-1.254-.175-2.581-.495-3.818C255.79,218.16,256.266,218.052,254.853,218.565ZM93.669,225.91a8.33,8.33,0,0,1,1.382,3.988c-.786,3.767-3.42-1.431-3.339-3.118C91.786,225.224,92.6,224.652,93.669,225.91Zm7.134-2.061a6.481,6.481,0,0,1,1.828,4.414c.144,1.63-.228,2.323-1.852,1.275-1.422-.917-2.133-3.36-2.206-4.792C98.573,223.114,99.565,222.792,100.8,223.848Zm25.707-4.666c.319,1.7-3.448,3.45-2.833.786C123.553,218.267,126.171,217.38,126.51,219.182ZM304.387,188.4c-2.845,3.474-6.291,5.68-9.852,8.305a96.941,96.941,0,0,1-9.573,6.769c-1,.567-2.645.9-2.826,1.95-.17.991,1.668,3.651,2.093,4.725,1.435,3.622,2.493,7.338,3.614,11.075A128.637,128.637,0,0,1,298.652,206c3.615-4.157,7.324-8.506,10.484-12.986A15.556,15.556,0,0,1,304.387,188.4Zm20.858-8.012a26.216,26.216,0,0,1-10.123,1.211c-1.5-.153-2.972-.281-4.484-.374-1.132-.07-3.046-.622-4.019.251-.921.824-.81,2.466-.341,3.491.3.663.724.77,1,1.318.089.177-.174.482.054.9a12.534,12.534,0,0,0,3.906,3.638c1.473.747,1.693-.122,2.841-.875,2.417-1.585,6.479-1.614,9.311-1.9.057.609,8.265-2.32,9.075-2.857,1.515-1,3.29-5.63,1.678-7C332.2,176.528,327.127,179.795,325.245,180.384Zm-55.194-22.048a18.633,18.633,0,0,1-3.8,4.486c-1.664,1.343-3.824,1.864-5.727,2.784a9.931,9.931,0,0,0-4.331,3.272c-.745,1.111-2.108,2.669-1.487,4.1.636,1.464,3.143,2.491,4.231,3.764,1.5,1.752,1.5,1.408,3.747.924a13.221,13.221,0,0,1,3.334-.277c.464.016,2.029.471,2.44.165.526-.391.009-2.013.076-2.645a12.792,12.792,0,0,1,.766-2.857c1.283-3.595,3.722-5.965,6.094-8.691,2.545-2.924,6.031-4.977,8.538-7.916,1.384-1.622.754-2.769-1.146-3.528-.965-.386-2.1-.384-3.087-.692a10.825,10.825,0,0,0-3.035-.956C272,150.082,271.856,155.459,270.051,158.336Z" transform="translate(0)"/></g></svg>